<?xml version="1.0" standalone="no"?>
<!DOCTYPE svg PUBLIC "-//W3C//DTD SVG 20010904//EN"
 "http://www.w3.org/TR/2001/REC-SVG-20010904/DTD/svg10.dtd">
<svg version="1.0" xmlns="http://www.w3.org/2000/svg"
 width="500.000000pt" height="500.000000pt" viewBox="0 0 500.000000 500.000000"
 preserveAspectRatio="xMidYMid meet">

<g transform="translate(0.000000,500.000000) scale(0.100000,-0.100000)"
fill="#000000" stroke="none">
<path d="M2535 3481 c3 -16 0 -21 -9 -18 -10 4 -12 -1 -8 -16 5 -20 4 -21 -13
-7 -18 14 -18 13 1 -18 23 -40 182 -206 239 -249 37 -29 38 -31 22 -47 -9 -10
-17 -21 -17 -26 0 -28 -121 54 -228 153 -69 64 -83 65 -97 6 -5 -22 -1 -30 23
-48 17 -11 35 -21 41 -21 6 0 11 -4 11 -9 0 -5 16 -24 35 -42 24 -23 33 -40
31 -55 -12 -66 85 -219 246 -388 87 -90 98 -106 77 -106 -6 0 -17 -7 -26 -15
-14 -14 -18 -14 -44 2 -15 10 -63 52 -105 93 -43 41 -75 67 -71 58 5 -13 0
-19 -17 -24 -13 -3 -29 -16 -36 -30 -17 -30 -25 -30 -47 2 -10 14 -28 38 -41
54 -29 37 -108 196 -121 247 -10 35 -15 40 -56 51 -55 15 -112 16 -120 2 -7
-11 -20 -10 -220 21 -151 24 -282 23 -276 -1 2 -8 3 -29 2 -46 -1 -31 -1 -32
66 -45 44 -9 138 -14 265 -14 108 0 191 -3 185 -7 -7 -5 -3 -8 11 -8 25 0 30
-25 6 -34 -10 -4 -14 -14 -11 -26 3 -11 1 -18 -3 -15 -5 3 -10 0 -12 -6 -5
-16 -140 -30 -273 -28 -162 2 -165 2 -159 -16 4 -8 11 -12 18 -8 7 3 6 1 -1
-7 -11 -12 -16 -11 -29 6 -15 18 -15 17 0 -8 8 -14 13 -36 11 -47 -4 -21 0
-21 143 -22 81 -1 156 0 166 1 19 2 19 1 2 -25 -14 -21 -15 -29 -6 -35 17 -11
-45 -43 -222 -117 -21 -9 -38 -20 -38 -25 0 -5 -4 -6 -10 -3 -5 3 -10 1 -10
-5 0 -6 -5 -8 -10 -5 -6 3 -13 0 -16 -9 -3 -8 -13 -12 -22 -9 -13 4 -14 3 -3
-5 11 -8 11 -10 0 -15 -9 -3 -9 -6 -2 -6 6 -1 19 6 27 15 19 18 22 4 4 -15
-10 -11 -10 -13 0 -7 7 4 12 1 12 -8 0 -21 34 -20 140 4 94 22 124 24 116 11
-3 -5 4 -20 17 -33 33 -38 46 -63 38 -77 -5 -7 -46 -38 -91 -69 -46 -32 -86
-64 -88 -72 -4 -11 1 -10 16 4 21 18 21 18 13 -12 -10 -34 -21 -35 107 6 l64
20 29 -26 c22 -19 26 -28 17 -34 -10 -6 -9 -8 2 -8 8 0 61 25 118 55 l104 54
-38 -42 c-21 -23 -40 -44 -43 -47 -3 -3 -22 -23 -41 -44 l-35 -38 63 31 c34
17 88 48 119 68 31 19 54 29 51 21 -4 -10 1 -14 16 -14 11 1 20 -4 19 -11 -4
-18 44 -6 68 18 33 33 32 16 -1 -41 -17 -29 -29 -55 -26 -57 4 -5 173 140 188
162 5 6 8 3 8 -7 0 -9 -4 -20 -10 -23 -5 -3 -10 -18 -10 -33 0 -31 -19 -68
-21 -42 -1 8 -5 -1 -9 -20 -5 -19 -15 -54 -24 -76 -45 -121 -88 -295 -93 -376
-3 -49 -3 -88 0 -88 3 0 23 11 43 25 21 14 43 24 50 21 6 -2 11 2 10 11 0 8 7
20 17 27 14 9 20 8 28 -4 8 -12 9 -10 4 7 -5 19 1 28 37 50 24 16 94 64 156
108 62 44 127 90 145 103 65 45 180 169 224 240 26 42 53 101 63 140 l17 67
51 3 c66 4 150 -21 212 -63 28 -19 50 -30 50 -26 0 19 -33 101 -44 110 -10 9
-11 21 -3 55 16 71 3 113 -43 136 -134 68 -247 87 -391 66 -92 -14 -199 -47
-228 -70 -11 -8 -13 -8 -8 0 4 7 -1 14 -13 17 -10 3 -21 0 -23 -7 -5 -15 -17
41 -26 122 -5 48 -10 66 -20 64 -7 -1 -19 3 -27 9 -10 8 -14 8 -14 1 0 -6 -7
-9 -15 -6 -9 4 -15 19 -15 36 0 42 28 163 51 221 l20 47 -26 45 c-15 25 -32
42 -39 39 -16 -6 -68 43 -131 126 -27 35 -67 80 -89 100 -22 19 -48 44 -57 54
-18 19 -18 19 -14 -3z"/>
<path d="M2153 2185 c0 -8 4 -12 9 -9 5 3 6 10 3 15 -9 13 -12 11 -12 -6z"/>
<path d="M2551 1687 c11 -19 10 -20 -3 -10 -12 10 -15 10 -15 0 0 -6 -2 -17
-4 -23 -2 -7 1 -12 6 -12 6 0 9 4 8 9 -2 5 4 9 12 9 20 0 19 36 0 44 -13 5
-14 2 -4 -17z"/>
</g>
</svg>
